<svg width="786" height="859" viewBox="0 0 786 859" fill="none" xmlns="http://www.w3.org/2000/svg">
<path d="M613 793.563C613 793.563 595 823.817 567 805.274C539 786.732 562 708.657 611 732.08C611 732.08 582 688.163 601 639.367C620 590.57 638 606.185 638 606.185C638 606.185 615 581.787 650 507.617C685 433.446 714 403.193 749 414.904C784 426.615 799 547.63 758 609.113C758 609.113 773 590.57 779 609.113C785 627.656 805 697.922 716 750.622C627 803.322 613 793.563 613 793.563Z" fill="#F3E7D9"/>
<path d="M408 856.022C420.49 852.499 395 736.959 328 733.056C261 729.152 256 760.381 264 780.876C264 780.876 172 673.524 116 657.909C59.9997 642.294 84.9997 671.572 84.9997 671.572C84.9997 671.572 16.9997 654.981 2.99975 676.452C-11.0003 697.922 36.9997 769.165 126 803.322C215 837.48 363 868.709 408 856.022Z" fill="#F3E7D9"/>
<path d="M525 627.656C525 627.656 498 536.894 509 502.737C509 502.737 482 502.737 504 447.109C526 391.482 536 384.65 551 392.457C566 400.265 573 437.35 552 473.459C552 473.459 558 451.013 580 457.844C602 464.676 556 602.282 541 623.752C526 645.222 525 627.656 525 627.656Z" fill="#F3E7D9"/>
<path d="M407.999 537.87C407.999 537.87 431.619 536.026 436.999 524.207L438.999 523.231C438.999 523.231 443.999 531.039 430.999 537.87C417.999 544.702 403.999 549.581 407.999 537.87Z" fill="#F3E7D9"/>
<path d="M433.999 512.496C433.999 512.496 444.999 524.207 428.999 532.991C412.999 541.774 388.999 547.63 380.999 528.111C372.999 508.593 394.999 492.002 412.999 495.906C430.999 499.809 433.999 512.496 433.999 512.496Z" fill="#992C29"/>
<path d="M279.999 584.715C278.999 587.643 264.999 604.233 278.999 614.969C292.999 625.704 346.089 574.185 320.999 565.782C295.909 557.379 280.999 581.787 279.999 584.715Z" fill="#992C29"/>
<path d="M321.999 579.835C321.999 579.835 321.999 594.474 304.999 604.233C287.999 613.993 282.999 613.993 277.999 612.041C272.999 610.089 273.999 614.969 275.999 616.92C277.999 618.872 281.999 621.8 295.999 615.944C309.999 610.089 324.999 596.426 326.999 588.619C328.999 580.811 327.999 574.956 321.999 579.835Z" fill="#F3E7D9"/>
<path d="M493.77 709.272C493.339 709.986 493.13 710.806 493.17 711.634C493.32 714.308 494.95 718.885 499.17 722.886C503.72 727.171 509.27 735.856 510.56 737.925C510.767 738.245 511.012 738.54 511.29 738.804C512.54 739.946 515.58 747.109 522.75 745.821C533.96 743.791 531.35 733.983 525.3 725.326C519.25 716.67 514.73 705.612 506.06 703.465C499.15 701.719 495.11 707.076 493.77 709.272Z" fill="#C94039"/>
<path d="M494 705.73C493.57 706.442 494.13 709.829 494.17 710.609C494.32 713.283 495.95 717.86 500.17 721.862C504.805 726.247 508.667 731.348 511.6 736.959C514 741.839 520.79 745.83 527 744.767C533.21 743.703 532.39 733.056 526.34 724.272C520.29 715.489 515.77 704.558 507.1 702.411C500.15 700.743 495.33 703.534 494 705.73Z" fill="#121721"/>
<path d="M460 618.872C460 618.872 472 645.222 477 656.933C482 668.644 487 689.139 488 696.946C489 704.754 489 707.681 494 707.681C499 707.681 511 714.513 516 708.657C521 702.802 514 683.283 514 683.283C514 683.283 516 612.041 499 595.45C477.41 574.38 460 607.161 460 618.872Z" fill="#273252"/>
<path d="M496 642.294L500 686.211C498.546 688.082 497.21 690.037 496 692.067C495 694.019 502 696.946 502 696.946C502 696.946 489 707.681 494 707.681C499 707.681 511 714.513 516 708.657C521 702.802 514 683.283 514 683.283C514 683.283 516 612.041 499 595.45C477.41 574.38 496 630.583 496 642.294Z" fill="#1D2538"/>
<path d="M446.64 758.918C446.64 758.918 441.54 767.232 447.5 778.036C453.46 788.839 456.01 804.63 464.5 812.115C472.99 819.601 482.38 821.26 490.05 815.443C497.72 809.627 490.9 789.669 485.79 781.364C480.68 773.059 479.11 764.305 474.79 756.624C470.47 748.944 456.86 747.285 446.64 758.918Z" fill="#121721"/>
<path d="M397 526.159C402 526.159 459 563.244 475 575.931C491 588.619 503 594.474 503 604.233C503 613.993 499 620.824 492 624.728C485 628.631 479 630.583 461 620.824C443 611.065 414 593.498 391 583.739C368 573.98 367 556.413 376 540.798C385 525.183 397 526.159 397 526.159Z" fill="#273252"/>
<path d="M475 575.931C491 588.619 503 594.474 503 604.233C503 613.993 500 621.8 493 625.704L486 614.969L491 605.209L448 557.389C448 557.389 459 563.244 475 575.931Z" fill="#273252"/>
<path d="M378 662.789C378.75 666.624 381 677.428 388 683.283C395 689.139 405 704.754 412 721.344C416.722 732.103 422.767 742.262 430 751.598C430 751.598 433 764.285 441 768.189C449 772.093 466 766.237 466 766.237C466 766.237 475 763.309 475 756.478C475 749.646 466 732.08 466 732.08C466 732.08 423 631.559 417 629.607C411 627.656 374 642.294 378 662.789Z" fill="#273252"/>
<path d="M395 680.356C395.75 684.191 424 739.887 431 745.743C438 751.598 440 754.526 445 754.526C450 754.526 454 754.526 447 756.478C440 758.43 433 764.285 441 768.189C449 772.093 466 766.237 466 766.237C466 766.237 475 763.309 475 756.478C475 749.646 466 732.08 466 732.08C466 732.08 423 631.559 417 629.607C411 627.656 391 659.861 395 680.356Z" fill="#1D2538"/>
<path d="M307 558.365C307 558.365 309 574.956 329 602.282C329.76 603.316 338.5 611.182 339.23 612.226C357.84 638.771 376 671.572 387 677.428C405.85 687.46 427 685.235 429 663.765C431 642.294 414 620.824 396 586.667C378 552.509 361 521.28 333 533.967C305 546.654 307 558.365 307 558.365Z" fill="#273252"/>
<path d="M404 632.535L376 637.415L387 677.428C387 677.428 425 698.898 429 663.765C431.44 642.294 414 620.824 396 586.667C378 552.509 404 632.535 404 632.535Z" fill="#1D2538"/>
<path d="M315.77 577.883C318 575.931 348 579.835 354 578.859C360 577.883 385 563.244 385 563.244L393 545.678C393 545.678 395 554.461 395 553.485C395 552.509 403 529.087 403 529.087C403 529.087 396 524.207 391 524.207C385 524.207 315.77 577.883 315.77 577.883Z" fill="#1D2538"/>
<path d="M265 451.013C261.3 447.402 201.85 360.925 193.08 348.16C192.783 347.725 192.333 347.412 191.815 347.279C191.297 347.146 190.748 347.202 190.27 347.438C189.987 347.575 189.739 347.77 189.54 348.009C189.342 348.248 189.198 348.526 189.119 348.824C189.041 349.122 189.029 349.433 189.084 349.736C189.139 350.039 189.26 350.327 189.44 350.58L263 454.917L265 451.013Z" fill="#D77D5B"/>
<path d="M195.46 351.312C195.46 351.312 151 344.637 137 334.878C123 325.118 119 328.046 126 347.565C133 367.083 145 397.337 145 397.337C145 397.337 190 400.265 207 400.265C224 400.265 228.21 398.245 228.21 398.245L195.46 351.312Z" fill="#FFACFF"/>
<path d="M158.04 369.426L186.84 373.359L188.85 376.042L159.18 372.412L158.04 369.426Z" fill="#3E4C6F"/>
<path d="M154.62 362.399L194.83 367.952L196.83 370.636L155.76 365.385L154.62 362.399Z" fill="#3E4C6F"/>
<path d="M151.2 356.348L191.41 361.911L193.41 364.585L152.34 359.344L151.2 356.348Z" fill="#3E4C6F"/>
<path d="M203.55 380.873C201.48 380.297 196.2 379.087 194.55 382.679C192.55 387.148 198.46 390.271 200.46 390.271L198.46 392.223C198.46 392.223 202.29 392.038 204.46 390.271C207.51 387.822 208.16 382.161 203.55 380.873Z" fill="#3E4C6F"/>
<path d="M129 369.035C130 370.011 145 397.337 145 397.337C145 397.337 165 387.578 163 379.77C161 371.963 129 369.035 129 369.035Z" fill="#665070"/>
<path d="M163 379.77C163 379.77 152.51 374.373 136.25 372.685C119.99 370.997 87 375.867 80 378.794C80 378.794 51 309.504 44 303.648C44 303.648 70 296.817 96 301.696C122 306.576 132 321.215 136 329.998C140 338.781 164 370.987 163 379.77Z" fill="#BB83C3"/>
<path d="M107.54 330.545C107.47 333.082 104.47 334.136 100.88 332.887C97.29 331.638 94.51 328.642 94.61 326.153C94.71 323.664 97.61 322.63 101.18 323.811C104.75 324.992 107.61 328.046 107.54 330.545Z" fill="#F3E7D9"/>
<path d="M94.3604 353.489L97.4803 336.342L112.96 347.711L116.9 321.029L140.65 355.138L94.3604 353.489Z" fill="#F3E7D9"/>
<path d="M329.45 405.242C331.66 383.713 284.22 385.538 260.56 391.774C245.92 395.678 231.83 408.238 229.56 415.762C228.78 418.339 225.98 432.763 226.97 439.848C228.04 447.587 242.97 478.28 255.59 472.61C272.9 464.852 327.23 426.781 329.45 405.242Z" fill="#C94039"/>
<path d="M314.83 415.528C315.13 400.509 290.56 388.261 268.88 391.628C243.63 395.532 230.54 411.742 232.24 419.93C233.94 428.118 254.63 433.885 272.24 433.876C289.85 433.866 314.69 422.223 314.83 415.528Z" fill="#F3E7D9"/>
<path d="M266.91 427.669C245.55 422.116 237.62 426.01 237.48 415.079C237.29 400.44 276.42 396.224 285.48 395.024C294.54 393.824 319.8 411.185 317.09 428.567C314.38 445.948 288.27 433.222 266.91 427.669Z" fill="#273252"/>
<path d="M364.8 259.351C364.8 259.351 350.75 235.333 350.75 234.357C350.75 233.382 353 220.45 353 213.863C353 209.959 359 197.272 365 198.248C371 199.224 369 200.2 365 217.767C363.82 222.968 372.14 208.212 376 213.863C379.86 219.514 386 216.791 390 219.719C394 222.646 395.86 239.374 392 243.141C388.14 246.908 385.48 257.916 380.65 260.707C375.82 263.499 364.8 259.351 364.8 259.351Z" fill="#F5894E"/>
<path d="M363 222.646C366.689 221.983 370.303 220.97 373.79 219.621C378 217.767 384 223.622 377 228.502C370 233.382 366 233.382 366 233.382C366 233.382 351 237.285 363 222.646Z" fill="#F5894E"/>
<path d="M486 103.583C486 103.583 470.9 150.428 482.45 183.609C494 216.791 559 162.139 530 129.933C501 97.7278 486 103.583 486 103.583Z" fill="#665070"/>
<path d="M504 72.3537C506 74.3056 529 108.463 573 101.631C617 94.8 637 76.2574 663 77.2333C663 77.2333 647 123.102 663 170.922C663 170.922 637 170.922 588 183.609C539 196.296 513 205.08 490 192.393C467 179.706 498 173.85 513 163.115C528 152.38 528.53 143.294 517.26 124.907C505.99 106.521 504 72.3537 504 72.3537Z" fill="#856792"/>
<path d="M534.27 174.192C548.033 174.192 559.19 163.303 559.19 149.872C559.19 136.44 548.033 125.551 534.27 125.551C520.507 125.551 509.35 136.44 509.35 149.872C509.35 163.303 520.507 174.192 534.27 174.192Z" fill="#F7BC4B"/>
<path d="M544.94 146.085C546.696 146.085 548.12 144.695 548.12 142.981C548.12 141.268 546.696 139.878 544.94 139.878C543.183 139.878 541.76 141.268 541.76 142.981C541.76 144.695 543.183 146.085 544.94 146.085Z" fill="#121721"/>
<path d="M523.55 146.085C525.306 146.085 526.73 144.695 526.73 142.981C526.73 141.268 525.306 139.878 523.55 139.878C521.794 139.878 520.37 141.268 520.37 142.981C520.37 144.695 521.794 146.085 523.55 146.085Z" fill="#121721"/>
<path d="M534.81 162.578C538.323 162.578 541.17 159.568 541.17 155.854C541.17 152.14 538.323 149.13 534.81 149.13C531.298 149.13 528.45 152.14 528.45 155.854C528.45 159.568 531.298 162.578 534.81 162.578Z" fill="#121721"/>
<path d="M526.559 135.496C525.309 134.11 521.639 133.915 519.779 136.706" stroke="#121721" stroke-linecap="round" stroke-linejoin="round"/>
<path d="M541.7 135.496C542.94 134.11 546.62 133.915 548.47 136.706" stroke="#121721" stroke-linecap="round" stroke-linejoin="round"/>
<path d="M432 324.143L222.48 8.3037C222.056 7.66726 221.782 6.94708 221.678 6.19501C221.574 5.44295 221.642 4.67769 221.877 3.95435C222.113 3.23101 222.509 2.56757 223.039 2.01181C223.568 1.45604 224.218 1.02178 224.94 0.740271C226.08 0.294517 227.345 0.252493 228.514 0.621497C229.683 0.9905 230.683 1.74725 231.34 2.76044L438 320.239L432 324.143Z" fill="#7A462F"/>
<path d="M231 20.6296L240 15.75C241.512 15.4783 243.037 15.2861 244.57 15.1742C254.22 14.7936 265.5 15.262 272 18.6778C285 25.5093 279 35.2685 316 45.0278C353 54.787 363 54.787 376 47.9556C389 41.1241 401 17.7019 453 31.3648C505 45.0278 514 60.6426 514 60.6426C514 60.6426 507 110.415 523 135.789C523 135.789 514 118.222 476 120.174C438 122.126 423 130.909 391 140.669C369.46 147.236 340.95 147.959 326 147.5C318.74 147.276 316 152.38 316 152.38L231 20.6296Z" fill="#BB83C3"/>
<path d="M481.66 120.272C481.66 120.272 513.66 119.911 523 135.789C532.34 151.667 513.84 163.515 507 166.862C500.16 170.21 483.79 175.646 481.68 184.614C481.68 184.614 473.77 173.547 481.68 120.272" fill="#665070"/>
<path d="M622.334 147.68C628.138 135.246 623.545 121.032 612.076 115.934C600.607 110.835 586.604 116.782 580.8 129.216C574.997 141.65 579.59 155.863 591.059 160.962C602.528 166.06 616.531 160.114 622.334 147.68Z" fill="#C94039"/>
<path d="M591.577 144.644C593.193 144.285 594.269 142.993 593.981 141.758C593.693 140.523 592.15 139.813 590.535 140.171C588.919 140.53 587.843 141.822 588.131 143.057C588.419 144.292 589.962 145.003 591.577 144.644Z" fill="#121721"/>
<path d="M596.149 141.684L586.569 138.346" stroke="#121721" stroke-width="2" stroke-linecap="round" stroke-linejoin="round"/>
<path d="M612.06 142.953C613.675 142.594 614.752 141.302 614.464 140.067C614.176 138.832 612.633 138.121 611.017 138.48C609.401 138.839 608.325 140.131 608.613 141.366C608.901 142.601 610.444 143.311 612.06 142.953Z" fill="#121721"/>
<path d="M606.46 140.825L616.04 135.906" stroke="#121721" stroke-width="2" stroke-linecap="round" stroke-linejoin="round"/>
<path d="M609.24 150.867C609.6 148.769 606.44 148.115 602.31 148.573C598.18 149.032 595.62 150.613 595.38 152.36C595.14 154.107 608.88 152.955 609.24 150.867Z" fill="#121721"/>
<path d="M400.27 92.6725C405.43 106.843 401.64 120.281 389.63 123.248C374.3 127.006 351.83 112.991 343.76 90.8963C335.69 68.8014 348.34 55.8606 366.82 60.7305C381.29 64.5463 395.1 78.5118 400.27 92.6725Z" fill="#F7BC4B"/>
<path d="M376.42 101.866C380.54 96.3127 387.64 101.329 387.64 101.329" stroke="#121721" stroke-width="3" stroke-linecap="round" stroke-linejoin="round"/>
<path d="M389.19 85.9483C389.9 87.9002 389.24 89.4324 387.66 89.3446C386.08 89.2567 384.08 87.4903 383.32 85.4409C382.56 83.3914 383.32 81.869 385 82.0642C386.68 82.2593 388.47 83.9867 389.19 85.9483Z" fill="#121721"/>
<path d="M366.679 83.938C367.539 86.2997 366.429 88.1052 364.139 87.9783C361.849 87.8514 359.039 85.6849 358.139 83.167C357.239 80.6491 358.509 78.8631 360.939 79.1559C362.231 79.4182 363.434 79.9938 364.437 80.8296C365.44 81.6654 366.211 82.7344 366.679 83.938Z" fill="#121721"/>
<path d="M452.32 102.764C467.723 102.764 480.21 90.5774 480.21 75.545C480.21 60.5126 467.723 48.3264 452.32 48.3264C436.916 48.3264 424.43 60.5126 424.43 75.545C424.43 90.5774 436.916 102.764 452.32 102.764Z" fill="#F7BC4B"/>
<g style="mix-blend-mode:multiply">
<path d="M437.159 60.8182L445.599 65.3075L432.939 68.2938" stroke="#121721" stroke-width="2" stroke-linecap="round" stroke-linejoin="round"/>
</g>
<g style="mix-blend-mode:multiply">
<path d="M466.83 60.8182L458.39 65.3075L471.05 68.2938" stroke="#121721" stroke-width="2" stroke-linecap="round" stroke-linejoin="round"/>
</g>
<path d="M467 71.6608C457.112 69.4199 446.811 69.5774 437 72.1195C436.034 72.3646 435.198 72.9529 434.654 73.769C434.11 74.5851 433.898 75.57 434.06 76.5307C435.06 83.45 442.46 92.9262 452.63 92.9262C462.8 92.9262 469.5 83.8989 470.21 75.9061C470.316 74.9348 470.045 73.96 469.451 73.1741C468.857 72.3882 467.982 71.8482 467 71.6608Z" fill="#121721"/>
<path d="M439 86.7291C440.524 84.5011 442.617 82.6992 445.072 81.5013C447.527 80.3033 450.259 79.7506 453 79.8976C462.63 80.327 466.27 85.7532 466.27 85.7532C466.27 85.7532 463.21 92.2821 454 92.8482C444.79 93.4142 439 86.7291 439 86.7291Z" fill="#EE5D4F"/>
<path opacity="0.46" d="M231 20.6296L240 15.75C241.512 15.4783 243.037 15.2861 244.57 15.1742C254.22 14.7936 265.5 15.262 272 18.6778C285 25.5093 279 35.2685 316 45.0278C353 54.787 363 54.787 376 47.9556C389 41.1241 314.71 146.524 314.71 146.524L231 20.6296Z" fill="#FFACFF"/>
<path d="M368.079 213.678C368.079 213.678 363.939 226.657 369.149 229.107C374.359 231.556 375.149 222.92 375.149 222.92C375.149 222.92 373.929 228.668 375.309 232.503C376.689 236.339 379.099 235.382 381.019 231.527C382.939 227.672 381.219 230.551 381.219 230.551C381.219 230.551 379.589 238.222 383.989 238.222C388.389 238.222 392.649 222.744 390.119 219.455C387.589 216.166 387.749 216.781 384.119 217.435C384.119 217.435 381.029 213.131 376.589 214.653C376.589 214.653 375.259 210.154 368.089 213.678" fill="#F5894E"/>
<path d="M366 244.117C366 244.117 371 233.284 368.52 229.917C368.52 229.917 375 236.309 366 244.117Z" fill="#CC6D3D"/>
<path d="M363 222.646C366.689 221.983 370.303 220.97 373.79 219.621C378 217.767 384 223.622 377 228.502C370 233.382 366 233.382 366 233.382C366 233.382 351 237.285 363 222.646Z" fill="#CC6D3D"/>
<path d="M361 222.646C364.689 221.983 368.303 220.97 371.79 219.621C376 217.767 382 223.622 375 228.502C371.475 230.862 368.133 233.471 365 236.309C365 236.309 349 237.285 361 222.646Z" fill="#F5894E"/>
<path d="M360 256.257C361.72 261.322 364.42 256.609 373.27 257.311C380.63 257.887 386.27 260.951 387.56 256.706C389.07 251.563 383.5 252.031 371.93 251.983C364.5 251.924 358.24 251.182 360 256.257Z" fill="#F3E7D9"/>
<path d="M376.94 359.598C371.061 358.194 365.802 354.981 361.94 350.434C356.94 344.422 358.18 338.42 359.31 329.052C361.55 310.421 359.6 318.619 357.91 305.717C355.76 289.234 352.18 258.873 366.22 256.716C383.46 254.032 387.48 255.594 389.08 261.01C390.68 266.426 387.99 264.416 389.08 268.31C390.17 272.204 393 309.387 394.52 317.584C396.04 325.782 395.24 330.379 395.24 330.379C395.24 330.379 396.17 339.855 396.13 344.901C396.09 349.946 395.14 361.716 376.94 359.598Z" fill="#C94039"/>
<path d="M376.88 360.066C376.88 360.066 386.25 343.144 387.02 336.429C388.1 326.963 376.81 266.085 376.81 266.085C376.81 266.085 382.91 248.001 389.11 261.01C391.54 266.114 390.53 289.4 391.62 293.294C392.71 297.188 393.03 309.387 394.55 317.584C396.07 325.782 395.27 330.379 395.27 330.379C395.27 330.379 396.2 339.855 396.16 344.901C396.12 349.946 395.07 362.204 376.88 360.066Z" fill="#992C29"/>
<path d="M386.519 327.412L379.809 307.005L371.149 293.713C371.149 293.713 386.579 303.092 388.309 311.963C389.367 317.169 388.742 322.568 386.519 327.412Z" fill="#992C29"/>
<path d="M363.18 442.132C356.93 442.659 337.27 412.308 337.27 400.665C337.27 395.61 348.67 381.459 348.67 381.459L349.67 376.403C350.49 372.578 354 348.541 358 344.637C362 340.733 368 347.565 378 347.565C388 347.565 396.66 333.336 396.34 348.082C396.02 362.828 384.52 385.753 383.28 397.103C382.04 408.453 369.58 441.586 363.18 442.132Z" fill="#273252"/>
<path d="M363.18 442.132C356.93 442.659 337.27 412.308 337.27 400.665C337.27 395.61 350.85 402.617 354.27 402.88C357.69 403.144 369.84 393.619 369.84 393.619L366.41 388.212C366.41 388.212 368 347.565 378 347.565C388 347.565 396.66 333.336 396.34 348.082C396.02 362.828 384.52 385.753 383.28 397.103C382.04 408.453 369.58 441.586 363.18 442.132Z" fill="#1D2538"/>
<path d="M406.999 516.4C404.999 519.328 404.999 521.28 408.999 522.256C412.999 523.231 411.999 518.352 420.999 517.376C426.609 516.771 433.749 521.123 435.999 525.183C437.359 527.643 433.739 531.166 435.999 530.063C441.999 527.135 442.999 516.4 428.999 512.496C425.058 511.325 420.874 511.158 416.848 512.012C412.822 512.866 409.087 514.713 405.999 517.376" fill="#F3E7D9"/>
<path d="M273.17 422.76C273.17 422.76 289.34 409.37 321 403.241C331 401.29 347.45 412.64 359 438.375C370.55 464.11 399 519.377 399 519.377C399 519.377 377.31 548.342 352 565.245C333.23 577.776 310.66 580.684 303 575.98C285 564.884 247.28 439.234 273.17 422.76Z" fill="#F7BC4B"/>
<path d="M317.93 412.142C320.87 418.827 314.1 431.416 304.81 435.31C295.52 439.204 281.02 433.134 278.07 426.449C275.12 419.764 285.73 415.88 295 411.976C304.27 408.072 315 405.457 317.93 412.142Z" fill="#F5894E"/>
<path d="M356.999 534.113L344.549 475.284L318.269 408.775C330.489 406.823 354.699 420.749 366.269 446.485C377.839 472.22 399.589 519.328 399.589 519.328L392.589 533.967L347.999 574.956L304.999 577.883L318.669 575.073C318.669 575.073 344.609 568.241 348.469 563.488C356.339 553.729 368.869 522.363 368.869 522.363L356.999 534.113Z" fill="#CE9436"/>
<path d="M319.36 408.541C321.2 402.051 329 398.313 335 398.313C341 398.313 332 398.313 352 418.807C357.23 424.165 364.08 428.85 367.51 434.422C393.06 476.182 422.67 486.146 429 492.978C436.18 500.785 444.42 518.137 439 530.063C436.52 535.509 447 515.424 425 511.52C416.15 509.949 406 517.376 406 517.376C396 513.472 371.8 491.368 362.84 471.215C358.23 460.85 347 439.682 337 426.615C327.52 414.279 319 409.751 319.36 408.541Z" fill="#C94039"/>
<path d="M319.36 408.541C321.2 402.051 329 398.313 335 398.313C341 398.313 332 398.313 352 418.807C357.23 424.165 364.08 428.85 367.51 434.422C393.06 476.182 422.67 486.146 429 492.978C436.18 500.785 444.42 518.137 439 530.063C436.52 535.509 447 515.424 425 511.52L415.2 492.451C405.2 488.547 381.97 470.063 381.97 470.063C381.97 470.063 347 439.682 337 426.615C327.52 414.279 319 409.751 319.36 408.541Z" fill="#992C29"/>
<path d="M306.5 406.608C322.83 411.927 330.66 460.85 323.5 463.124C316.34 465.398 271.38 425.336 280.5 415.392" stroke="#992C29" stroke-miterlimit="10"/>
<path d="M326.445 472.05C327.855 471.629 328.327 469.152 327.499 466.519C326.672 463.886 324.858 462.093 323.448 462.515C322.038 462.937 321.566 465.414 322.394 468.047C323.221 470.68 325.035 472.472 326.445 472.05Z" fill="#29ABE2"/>
<path d="M314.439 402.5C320.379 400.06 323.089 401.016 327.299 402.178C331.509 403.339 334.839 407.321 342.039 417.89C349.239 428.459 360.449 460.274 357.039 461.748C353.629 463.222 342.329 435.535 335.039 426.615C327.749 417.695 308.499 404.939 314.439 402.5Z" fill="#F3E7D9"/>
<path d="M299.999 588.619C307.219 586.267 310.999 578.859 303.999 579.835C296.999 580.811 294.999 585.691 287.999 590.57C280.999 595.45 272.329 603.902 276.999 613.017C278.999 616.92 279.999 616.92 282.999 611.065C285.999 605.209 287.999 592.522 299.999 588.619Z" fill="#F3E7D9"/>
<path d="M272.889 426.722C280.069 429.269 295.889 459.464 301.559 476.494C307.229 493.524 303.809 520.587 307.289 531.361C310.769 542.135 312.179 576.976 309.939 579.991C309.049 581.192 292.359 585.983 285.999 592.493C280.168 598.66 276.644 606.571 275.999 614.939C275.999 614.939 241.209 586.432 258.999 530.034C257.999 507.587 234.349 459.533 235.999 451.96C237.649 444.386 265.709 424.165 272.889 426.722Z" fill="#992C29"/>
<path d="M281.439 438.853C288.629 441.4 295.899 459.464 301.559 476.524C307.219 493.583 303.809 520.616 307.289 531.39C310.769 542.164 312.179 577.005 309.939 580.021C308.299 582.236 302.999 540.798 302.999 540.798C302.999 540.798 292.639 538.661 291.559 530.688C291.039 526.784 293.289 476.699 293.289 476.699C293.289 476.699 274.259 436.296 281.439 438.853Z" fill="#C94039"/>
<path d="M305.3 487.444C307.53 483.16 304.54 476.211 299.79 465.613C295.04 455.014 288 437.613 279.38 428.293C270.33 418.534 250.16 429.191 259.28 433.173C268.7 437.282 279.17 444.796 288.99 460.811C299.91 478.622 303.08 491.719 305.3 487.444Z" fill="#F3E7D9"/>
<path d="M287.769 554.022L291.669 554.998C291.669 554.998 288.979 569.832 276.829 573.414L275.619 570.71C275.619 570.71 284.589 567.363 287.769 554.022Z" fill="#F3E7D9"/>
<path d="M295.55 481.618C295.55 481.618 304.73 506.309 288.77 515.727C292.498 504.683 294.776 493.222 295.55 481.618Z" fill="#C94039"/>
<path d="M395.999 494.93L396.999 498.628C396.999 498.628 401.999 501.761 418.999 499.809L417.999 495.906C417.999 495.906 404.999 500.785 395.999 494.93Z" fill="#F3E7D9"/>
<path d="M501.799 311.582C520.588 311.582 535.819 296.718 535.819 278.381C535.819 260.045 520.588 245.18 501.799 245.18C483.011 245.18 467.779 260.045 467.779 278.381C467.779 296.718 483.011 311.582 501.799 311.582Z" fill="#29ABE2"/>
<path d="M479.319 280.851L498.409 262.279L525.419 270.379" stroke="#F3E7D9" stroke-width="5" stroke-linecap="round" stroke-linejoin="round"/>
<path d="M517.21 271.111C517.151 270.097 516.77 269.126 516.119 268.334C515.469 267.541 514.581 266.966 513.58 266.69L501.76 263.225C500.769 262.94 499.718 262.924 498.719 263.179C497.72 263.433 496.811 263.949 496.09 264.67L488.09 272.682C487.353 273.405 486.868 274.336 486.701 275.342C486.534 276.348 486.694 277.381 487.16 278.294L496 294.992C496.576 296.015 497.487 296.821 498.587 297.281C499.687 297.741 500.913 297.828 502.07 297.529L513.83 294.709C515.027 294.446 516.095 293.79 516.854 292.85C517.613 291.91 518.018 290.743 518 289.546L517.21 271.111ZM504.56 284.335C503.486 284.527 502.377 284.409 501.371 283.994C500.365 283.579 499.506 282.885 498.9 281.999C498.293 281.113 497.966 280.073 497.958 279.007C497.951 277.941 498.263 276.897 498.857 276.002C499.451 275.108 500.301 274.403 501.3 273.974C502.3 273.546 503.407 273.412 504.484 273.591C505.56 273.769 506.56 274.251 507.359 274.978C508.158 275.704 508.721 276.643 508.98 277.679C509.297 279.133 509.01 280.651 508.181 281.899C507.352 283.147 506.05 284.023 504.56 284.335Z" fill="#F3E7D9"/>
<path opacity="0.5" d="M530.999 268.798C530.999 280.958 475.129 280.958 475.129 268.798C475.129 256.638 487.629 246.781 503.059 246.781C518.489 246.781 530.999 256.638 530.999 268.798Z" fill="#FFFCF3"/>
<path d="M456.81 351.429L470 376.911" stroke="#F7BC4B" stroke-width="3" stroke-linecap="round" stroke-linejoin="round"/>
<path d="M446.969 380.102L471.629 362.409" stroke="#F7BC4B" stroke-width="3" stroke-linecap="round" stroke-linejoin="round"/>
<path d="M442.779 372.139L467.439 354.455" stroke="#F7BC4B" stroke-width="3" stroke-linecap="round" stroke-linejoin="round"/>
<path d="M446.35 359.13L459.54 384.611" stroke="#F7BC4B" stroke-width="3" stroke-linecap="round" stroke-linejoin="round"/>
<path d="M276.21 173.811L209.75 210.359L261.97 233.011L276.21 173.811Z" fill="#33A86D"/>
<path opacity="0.5" d="M276.21 173.811L250.63 188.996L261.97 233.011L276.21 173.811Z" fill="#FFFCF3"/>
<path d="M276.21 173.811L272.67 177.724L233.22 220.392L236.12 221.426L276.21 173.811Z" fill="#288453"/>
<path d="M178.739 120.077C179.569 121.765 185.919 135.135 182.169 143.323C182.085 143.502 182.063 143.703 182.105 143.896C182.147 144.088 182.251 144.263 182.402 144.393C182.554 144.523 182.744 144.602 182.945 144.619C183.146 144.635 183.348 144.588 183.519 144.484C190.789 140.054 206.379 128.313 205.909 109.253C205.309 84.6309 178.479 111.205 178.649 119.696C178.649 119.828 178.68 119.958 178.739 120.077Z" fill="#F7BC4B"/>
<path d="M182.699 76.1501H161.279C148.461 76.1501 138.069 86.2914 138.069 98.8013V108.473C138.069 120.983 148.461 131.124 161.279 131.124H182.699C195.518 131.124 205.909 120.983 205.909 108.473V98.8013C205.909 86.2914 195.518 76.1501 182.699 76.1501Z" fill="#F7BC4B"/>
<path opacity="0.5" d="M156.649 92.6335C155.582 92.0027 154.715 91.0953 154.145 90.0121C153.575 88.9289 153.324 87.7126 153.421 86.4985C153.517 85.2845 153.957 84.1203 154.691 83.1358C155.425 82.1513 156.425 81.385 157.579 80.9223C167.719 76.9601 184.229 80.1806 188.119 80.6296C199.759 81.9959 202.249 95.2685 201.949 108.297C201.923 109.416 201.595 110.509 200.999 111.465C200.403 112.422 199.559 113.209 198.553 113.747C197.547 114.284 196.414 114.555 195.267 114.53C194.12 114.505 193 114.187 192.019 113.606L156.649 92.6335Z" fill="#FFFCF3"/>
<path d="M69.7701 252.051C90.5636 252.051 107.42 235.6 107.42 215.307C107.42 195.014 90.5636 178.564 69.7701 178.564C48.9766 178.564 32.1201 195.014 32.1201 215.307C32.1201 235.6 48.9766 252.051 69.7701 252.051Z" fill="#29ABE2"/>
<path d="M61.0803 240.447C57.8203 242.282 54.4203 241.511 52.0803 237.588L47.5503 229.214C45.2303 225.311 45.4103 221.339 48.6703 219.455C51.9303 217.62 55.1403 218.05 57.4603 221.973L61.9903 230.346C64.3303 234.357 64.3403 238.612 61.0803 240.447Z" fill="#F3E7D9"/>
<path d="M58.9305 220.743C57.6705 218.684 58.4905 216.439 59.0205 214.087C59.6905 211.111 60.9105 204.328 60.4205 203.157C59.6005 201.147 55.4206 193.398 56.3206 191.251C57.2206 189.104 62.7905 188.635 65.1505 190.958C68.0205 193.788 68.0205 195.154 69.0605 199.175C69.9305 202.581 69.6005 203.264 73.0605 202.181C77.0605 200.922 82.7206 200.385 84.4606 199.644C85.0425 199.407 85.6683 199.291 86.2986 199.302C86.9289 199.313 87.55 199.451 88.123 199.708C88.6959 199.965 89.2082 200.334 89.6277 200.793C90.0472 201.253 90.3648 201.792 90.5605 202.376C90.7728 202.848 90.8567 203.366 90.8042 203.879C90.7516 204.392 90.5644 204.882 90.2605 205.304C90.8933 205.654 91.4432 206.13 91.874 206.702C92.3049 207.274 92.607 207.928 92.7605 208.622C93.0984 210.164 92.9232 211.771 92.2605 213.209C92.2605 213.209 95.7605 214.673 94.5605 219.553C94.5605 219.553 96.8705 224.013 93.8605 226.579C91.5705 228.531 87.4406 230.161 82.4606 232.24C74.0606 235.753 68.2105 235.899 66.5605 234.289C64.9105 232.679 58.9305 220.743 58.9305 220.743Z" fill="#F3E7D9"/>
<path opacity="0.5" d="M97.4203 210.545C97.4203 226.16 38.8203 226.16 38.8203 210.545C38.8203 202.961 41.9073 195.688 47.4021 190.325C52.8969 184.963 60.3495 181.95 68.1203 181.95C75.8911 181.95 83.3437 184.963 88.8385 190.325C94.3333 195.688 97.4203 202.961 97.4203 210.545Z" fill="#FFFCF3"/>
<path d="M219.8 283.749C220.266 285.312 220.407 286.949 220.217 288.566C220.026 290.182 219.507 291.746 218.69 293.164C217.873 294.583 216.774 295.828 215.458 296.827C214.142 297.826 212.634 298.559 211.024 298.983C209.415 299.407 207.734 299.513 206.082 299.295C204.429 299.077 202.838 298.54 201.401 297.715C199.963 296.89 198.709 295.794 197.711 294.49C196.714 293.186 195.992 291.701 195.59 290.122" stroke="#F7BC4B" stroke-width="3" stroke-miterlimit="10"/>
<path d="M195.569 251.026C195.569 251.026 206.209 244.312 214.399 259.331C216.879 263.879 218.599 267.139 221.779 272.721C223.219 275.229 229.259 280.88 229.259 280.88L205.549 287.126" stroke="#F7BC4B" stroke-width="3" stroke-miterlimit="10"/>
<path d="M199.939 249.875C199.939 249.875 187.279 249.299 187.939 266.299C188.139 271.443 188.339 275.083 188.459 281.485C188.509 284.364 186.189 292.22 186.189 292.22L209.909 285.984" stroke="#F7BC4B" stroke-width="3" stroke-miterlimit="10"/>
<path d="M72.5195 475.206C83.8095 491.231 105.169 495.466 120.859 486.137C136.239 476.992 142.419 456.986 134.309 439.956C125.389 421.257 102.639 412.737 83.9494 422.877C64.8194 433.251 60.0595 457.552 72.5195 475.206Z" fill="#EE5D4F"/>
<path opacity="0.5" d="M99.5099 444.582C99.5099 444.582 135.92 456.41 128.84 441.556C121.05 425.239 101.21 417.831 84.9099 426.615C68.2199 435.701 99.5099 444.582 99.5099 444.582Z" fill="#FFFCF3"/>
<g style="mix-blend-mode:color-dodge">
<path d="M79.9391 455.941C79.8191 442.376 95.7792 447.012 97.8192 447.666C98.2792 445.616 102.199 430.04 113.819 436.93C130.819 447.129 115.489 471.585 113.669 474.357L113.739 474.484H113.579C113.553 474.532 113.523 474.577 113.489 474.621L113.419 474.494C110.059 474.787 80.1291 476.28 79.9391 455.941Z" fill="#FFFCF3"/>
</g>
<path d="M294.54 490.811L344.49 470.863C346.661 469.998 349.09 469.986 351.27 470.828C353.451 471.67 355.213 473.301 356.19 475.382L375.71 517.025C376.213 518.094 376.493 519.251 376.532 520.427C376.572 521.604 376.371 522.776 375.94 523.876C375.51 524.975 374.86 525.98 374.027 526.831C373.194 527.683 372.195 528.363 371.09 528.833L317.54 551.65C316.394 552.141 315.157 552.395 313.907 552.397C312.656 552.398 311.418 552.148 310.271 551.66C309.125 551.172 308.094 550.459 307.243 549.563C306.393 548.668 305.741 547.611 305.33 546.458L289.4 501.937C288.635 499.793 288.742 497.444 289.698 495.374C290.654 493.305 292.387 491.672 294.54 490.811Z" fill="#F3E7D9"/>
<path d="M333.31 529.263C343.654 529.263 352.04 521.079 352.04 510.984C352.04 500.888 343.654 492.704 333.31 492.704C322.966 492.704 314.58 500.888 314.58 510.984C314.58 521.079 322.966 529.263 333.31 529.263Z" fill="#29ABE2"/>
<path d="M325.58 503.235L333.75 522.275L342.5 506.855L325.58 503.235Z" fill="#C94039"/>
<g opacity="0.5">
<path opacity="0.5" d="M309.31 487.893L345.31 473.518C346.875 472.895 348.625 472.886 350.196 473.494C351.767 474.101 353.037 475.278 353.74 476.777L367.81 506.777C369.32 510.027 306.08 489.181 309.31 487.893Z" fill="#FFFCF3"/>
</g>
<path d="M273.52 394.614L286.46 427.796C286.46 427.796 291.09 433.651 301.3 430.255C311.51 426.859 311.21 418.271 311.21 418.271L297.09 381.039L273.52 394.614Z" fill="#F5894E"/>
<path d="M273.52 394.614C273.52 394.614 290.42 414.133 296.4 417.061C302.38 419.988 310 416.856 310 416.856L298.34 380.746L273.52 394.614Z" fill="#CC6D3D"/>
<path d="M254.1 389.305C270.5 405.896 279.7 407.36 279.7 407.36C312.79 398.645 317.92 369.777 308.7 350.756C299.9 330.74 295.75 325.86 272.75 333.775C240.69 344.783 239.49 374.539 254.1 389.305Z" fill="#1D2538"/>
<path d="M254.1 389.305C270.5 405.886 278 400.265 278 400.265C311.1 391.56 317.92 369.777 308.68 350.746C299.88 330.73 297.68 322.308 270.46 330.057C232.63 340.821 239.49 374.539 254.1 389.305Z" fill="#3E4C6F"/>
<path d="M252.05 390.32C266.05 404.461 285.26 383.176 285.26 383.176C288.99 378.453 284.2 360.73 280.87 349.068C278 339.016 280.11 327.744 253.77 340.685C230.36 352.191 239.6 377.731 252.05 390.32Z" fill="#1D2538"/>
<path d="M273.51 336.195C273.51 336.195 294.01 338.557 298.1 340.597C302.19 342.636 317.56 375.252 316.25 387.851C314.95 400.284 279.38 411.839 268.54 407.155C259.66 403.329 258.8 396.527 253.41 386.738C247.73 376.423 252.62 366.527 251.82 362.009C250.43 354.279 273.51 336.195 273.51 336.195Z" fill="#CC6D3D"/>
<path d="M245.54 388.642C249.34 394.243 255.63 397.884 258.09 396.634C260.55 395.385 259.5 389.803 255.69 384.142C251.88 378.482 246.76 374.92 244.3 376.228C241.84 377.535 241.74 383.03 245.54 388.642Z" fill="#CC6D3D"/>
<path d="M297.539 346.482C304.459 347.945 320.039 383.342 312.359 391.93C304.679 400.519 295.459 402.197 286.509 398.889C278.669 395.961 272.559 369.718 278.509 361.13C285.709 350.619 290.609 345.027 297.539 346.482Z" fill="#F5894E"/>
<path d="M247.89 355.753C247.89 355.753 255.84 371.055 255.77 376.501L254.21 385.089L243.87 363.023L247.89 355.753Z" fill="#1D2538"/>
<path d="M295.059 327.812C295.059 327.812 291.209 336.195 271.239 342.734C261.329 345.974 254.059 352.23 248.919 352.815C236.279 354.24 248.969 326.065 269.109 318.736C289.469 311.338 295.059 327.812 295.059 327.812Z" fill="#1D2538"/>
<path d="M269.14 318.453C253.21 324.992 241.05 345.164 251.23 344.012C254.12 343.681 258.68 343.037 264.11 341.924C272.86 337.61 280.91 329.949 280.91 329.949C281.74 334.487 277.19 337.854 271.83 340.197C276.908 338.953 281.915 337.448 286.83 335.688C295.19 332.662 296.23 332.809 295.9 329.881C295.25 323.918 286.35 311.397 269.14 318.453Z" fill="#3E4C6F"/>
<path d="M269.82 363.18C270.56 365.532 272.02 366.225 273.23 365.863C274.44 365.502 274.93 364.224 274.23 361.862C273.53 359.5 271.91 357.89 270.7 358.251C269.49 358.612 269.08 360.798 269.82 363.18Z" fill="#34283A"/>
<path d="M290.11 357.324C290.85 359.676 292.31 360.369 293.52 360.008C294.73 359.647 295.22 358.368 294.52 356.016C293.82 353.664 292.2 352.044 291 352.405C289.8 352.766 289.37 354.972 290.11 357.324Z" fill="#34283A"/>
<path d="M264 357.412C264.131 357.364 264.247 357.283 264.335 357.176C264.423 357.07 264.48 356.942 264.5 356.807C264.5 356.631 265.22 352.503 268.72 352.279C268.823 352.272 268.923 352.246 269.015 352.202C269.107 352.158 269.19 352.097 269.257 352.021C269.325 351.946 269.377 351.859 269.41 351.764C269.443 351.669 269.457 351.569 269.45 351.469C269.437 351.266 269.343 351.076 269.187 350.941C269.032 350.806 268.828 350.736 268.62 350.746C264.81 350.99 263.24 354.65 262.95 356.602C262.921 356.802 262.974 357.006 263.098 357.168C263.221 357.331 263.405 357.439 263.61 357.47C263.743 357.481 263.876 357.461 264 357.412Z" fill="#34283A"/>
<path d="M296.999 347.253C297.072 347.228 297.14 347.192 297.199 347.145C297.363 347.023 297.471 346.843 297.499 346.644C297.527 346.444 297.473 346.242 297.349 346.081C295.179 343.251 291.349 343.944 289.689 344.705C289.51 344.79 289.371 344.938 289.301 345.12C289.23 345.301 289.233 345.502 289.309 345.681C289.396 345.856 289.548 345.992 289.733 346.063C289.918 346.133 290.124 346.133 290.309 346.062C290.469 345.984 294.119 344.422 296.069 346.96C296.167 347.105 296.312 347.213 296.482 347.266C296.651 347.319 296.833 347.314 296.999 347.253Z" fill="#34283A"/>
<path d="M185.63 518.869C185.63 518.869 222.24 464.539 229.11 455.863C236.11 447.012 245.29 439.204 256.74 444.406C268.19 449.608 277.81 465.554 268.47 477.587C259.13 489.621 238.22 520.157 231.12 525.857C224.02 531.556 211.35 543.726 211.19 538.231C211.03 532.737 185.63 518.869 185.63 518.869Z" fill="#1D2538"/>
<path d="M185.629 518.869C183.939 516.712 196.119 503.079 207.999 487.122C217.209 474.747 226.109 459.65 229.109 455.893C236.109 447.041 252.679 436.901 251.999 449.198C250.929 468.394 215.999 477.5 222.469 505.694C227.059 525.691 188.639 522.695 185.629 518.869Z" fill="#273252"/>
<path d="M241.57 468.121C241.57 468.121 226.38 473.264 218.73 487.639C211.08 502.015 241.57 468.121 241.57 468.121Z" fill="#273252"/>
<path d="M270 520.304C270 520.304 256 518.352 234 515.424C212 512.496 203 497.857 192 506.641C181 515.424 178 534.943 187 542.75C196 550.557 230 553.485 247 556.413C264 559.341 270 567.148 274 554.461C278 541.774 276 525.183 270 520.304Z" fill="#C94039"/>
<path d="M270 520.304C270 520.304 256 518.352 234 515.424C212 512.496 258.54 531.829 258.54 531.829C258.54 531.829 270 567.148 274 554.461C278 541.774 276 525.183 270 520.304Z" fill="#992C29"/>
<path d="M277.321 525.418C277.321 525.418 269.531 523.105 266.941 533.108C264.351 543.111 267.421 554.793 272.801 556.267C278.181 557.74 277.321 551.582 277.321 551.582C277.321 551.582 273.861 550.04 273.861 543.111C273.861 536.182 279.921 529.263 279.921 529.263L277.321 525.418Z" fill="#F3E7D9"/>
<path d="M273.18 547.083C270.18 541.959 271.61 537.099 273.09 530.57C274.94 522.441 278.78 514.438 281 509.569C285 500.785 292.56 501.332 297.11 500.17C304.73 498.218 307.69 498.628 307.69 498.628C307.69 498.628 313.63 500.756 312.54 502.688C311.45 504.621 302.68 504.347 302.85 504.64C303.02 504.933 304.62 504.269 306.51 505.323C307.162 505.753 307.694 506.335 308.055 507.017C308.417 507.699 308.597 508.459 308.58 509.227C308.646 510.033 308.442 510.837 308 511.52C308.576 511.402 309.177 511.495 309.688 511.781C310.199 512.067 310.584 512.527 310.77 513.072C311.248 514.374 311.515 515.74 311.56 517.122C311.357 518.364 310.883 519.549 310.17 520.596C310.17 520.596 311.56 519.621 312.55 522.138C313.54 524.656 312.1 527.867 312.01 528.443C311.01 535.274 294.01 538.807 294.01 538.807C293.457 540.991 292.446 543.039 291.042 544.823C289.637 546.607 287.87 548.088 285.85 549.172C278.85 553.075 278.46 552.861 277.01 551.494C275.648 550.096 274.37 548.623 273.18 547.083Z" fill="#F5894E"/>
</svg>
