<svg width="171" height="198" viewBox="0 0 171 198" fill="none" xmlns="http://www.w3.org/2000/svg">
<path d="M0.498047 107.442L13.261 120.678L29.0843 103.206L0.498047 107.442Z" fill="#665070"/>
<path d="M29.0845 103.206L6.8457 114.011L6.87847 120.678L29.0845 103.206Z" fill="#856792"/>
<path d="M14.625 21.4595L37.6604 32.2292L55.8104 11.3848L14.625 21.4595Z" fill="#856792"/>
<path d="M55.8103 11.3848L28.8575 33.8527L24.9805 26.5934L55.8103 11.3848Z" fill="#BB83C3"/>
<path d="M140.379 7.84422L170.495 0.100647L158.128 14.9906L140.379 7.84422Z" fill="#856792"/>
<path d="M170.496 0.100647L148.756 11.6156L150.152 19.161L170.496 0.100647Z" fill="#BB83C3"/>
<path d="M53.418 189.901L75.4904 182.489L64.3206 197.577L53.418 189.901Z" fill="#856792"/>
<path d="M75.4909 182.489L58.1602 193.173L58.2534 197.916L75.4909 182.489Z" fill="#665070"/>
</svg>
