<svg width="262" height="201" viewBox="0 0 262 201" fill="none" xmlns="http://www.w3.org/2000/svg">
<path d="M256.663 184.458C250.016 174.924 204.731 140.425 133.53 143.271C73.1406 145.686 30.9039 173.635 24.4585 176.778C18.0131 179.921 20.6996 182.017 38.9612 179.397C57.2229 176.776 66.3527 177.3 66.3527 177.3L65.2781 179.919C65.2781 179.919 50.7325 192.189 49.6601 196.38C48.5855 200.571 54.4936 201.095 60.939 198.476C67.3845 195.858 114.692 186.73 120.6 186.206C126.509 185.682 136.923 189.033 141.219 189.555C145.515 190.079 173.874 198.949 179.836 199.467C185.797 199.987 182.809 190.326 175.263 176.668C171.92 170.615 202.833 186 209.815 187.572C216.798 189.145 206.523 179.923 205.448 178.353C204.374 176.782 245.208 187.252 253.803 191.968C262.395 196.687 263.309 193.991 256.663 184.458Z" fill="#F4E8D8"/>
<path d="M96.7611 138.771C96.7611 138.771 44.5683 148.384 23.4553 117.388C2.34235 86.3923 21.7386 41.6378 61.6184 33.0066C61.6184 33.0066 19.7414 50.4947 34.5994 93.6509C49.4575 136.807 96.7611 138.771 96.7611 138.771Z" fill="#F4E8D8"/>
<path d="M219.27 123.242C230.62 112.228 232.172 102.845 238.57 91.8724C244.968 80.8997 251.758 74.8892 251.758 74.8892C251.758 74.8892 247.619 74.8827 237.412 84.109C228.327 92.3214 219.27 111.345 219.27 111.345C221.317 101.872 220.717 89.9219 220.717 89.9219C208.818 116.03 167.309 134.505 155.578 128.485C155.58 128.485 186.519 155.024 219.27 123.242Z" fill="#F4E8D8"/>
<path d="M193.72 79.9204C195.675 79.9204 230.477 63.7621 232.035 48.1407C233.208 36.371 230.862 18.7154 202.321 9.69103C169.942 -0.547045 156.578 4.59132 144.068 8.12073C144.068 8.12073 178.864 3.02103 200.367 18.3223C236.314 43.9046 193.72 79.9204 193.72 79.9204Z" fill="#F4E8D8"/>
<path d="M177.689 38.7253C177.689 38.7253 154.622 17.1471 131.946 20.6787C116.101 23.1469 74.8642 33.3012 68.6093 58.3422C64.3259 75.4973 83.4652 82.2747 83.4652 82.2747C83.4652 82.2747 71.345 75.6047 77.2103 59.1262C83.0756 42.6478 119.434 24.9922 142.502 26.5625C165.569 28.1328 177.689 38.7253 177.689 38.7253Z" fill="#F4E8D8"/>
<path d="M61.1823 60.3035C61.1823 60.3035 42.0258 77.566 53.7543 87.7675C65.4828 97.9691 89.7232 89.3378 89.7232 89.3378C89.7232 89.3378 72.5212 90.9081 64.7015 81.0997C56.8818 71.2891 61.1823 60.3035 61.1823 60.3035Z" fill="#F4E8D8"/>
<path d="M23.4552 117.388C23.4552 117.388 -4.69402 105.03 1.75782 80.9018C8.20965 56.7739 19.3516 67.955 19.3516 67.955C19.3516 67.955 17.0055 45.5927 29.3205 38.5296C41.6355 31.4665 46.3277 35.9798 46.3277 35.9798C46.3277 35.9798 52.193 29.7029 55.1235 30.8801C56.4272 31.4042 56.6091 32.3902 56.4122 33.3268C56.1467 34.5813 48.494 38.6521 47.3038 39.1182C43.8617 40.4694 40.9098 41.6487 33.8158 48.9267C23.4209 59.5901 19.8868 74.8763 20.5225 87.965C21.6956 112.091 23.4552 117.388 23.4552 117.388Z" fill="#F4E8D8"/>
<path d="M58.837 65.4033C58.837 65.4033 64.3106 55.9879 57.2722 54.4176C50.2338 52.8473 49.8442 67.7576 49.8442 67.7576C49.8442 67.7576 47.498 64.2261 43.9788 70.503C40.4596 76.7798 48.2794 86.1973 53.753 87.7655C59.2287 89.3358 56.4908 70.5051 58.837 65.4033Z" fill="#F4E8D8"/>
<path d="M223.138 57.949C223.138 57.949 234.721 56.5999 240.438 43.5306C245.717 31.4666 240.438 23.5206 234.28 21.757C228.121 19.9912 223.138 22.6398 223.138 22.6398C223.138 22.6398 228.417 7.33859 215.222 5.57281C202.027 3.80703 202.32 9.69296 202.32 9.69296C202.32 9.69296 197.921 3.21844 191.765 0.571924C185.606 -2.07674 185.899 6.45785 185.899 6.45785C185.899 6.45785 180.034 -0.0166697 171.825 1.74911C163.616 3.51489 163.83 5.52126 167.642 5.81555C171.455 6.10985 194.353 6.15066 209.307 21.4519C224.262 36.7532 223.138 57.949 223.138 57.949Z" fill="#F4E8D8"/>
<path d="M98.7148 32.0552C98.7148 32.0552 111.715 15.5768 129.6 13.2224C143.908 11.3385 136.724 21.394 138.787 20.2855C144.261 17.3426 151.12 14.7497 153.84 16.363C158.141 18.9129 154.427 22.0513 154.427 22.0513C154.427 22.0513 166.742 28.9168 168.501 32.6438C168.696 33.6255 158.31 24.8417 144.848 23.8171C129.405 22.6399 98.7148 32.0552 98.7148 32.0552Z" fill="#F4E8D8"/>
</svg>
