<svg width="1921" height="528" viewBox="0 0 1921 528" fill="none" xmlns="http://www.w3.org/2000/svg">
<path d="M-121.999 197.839L1.5843 241.704C125.168 286.393 372.334 372.886 619.501 351.675C866.668 329.639 1113.83 197.839 1361 175.804C1608.17 154.593 1855.33 241.086 2102.5 230.789C2349.67 220.493 2596.83 109.286 2720.42 55.1248L2844 0.139465V527.339H2720.42C2596.83 527.339 2349.67 527.339 2102.5 527.339C1855.33 527.339 1608.17 527.339 1361 527.339C1113.83 527.339 866.668 527.339 619.501 527.339C372.334 527.339 125.168 527.339 1.5843 527.339H-121.999V197.839Z" fill="url(#paint0_radial_21_582)"/>
<defs>
<radialGradient id="paint0_radial_21_582" cx="0" cy="0" r="1" gradientUnits="userSpaceOnUse" gradientTransform="translate(992.001 -452.161) rotate(90) scale(943 5305.27)">
<stop stop-color="#F9BC6E"/>
<stop offset="1" stop-color="white"/>
</radialGradient>
</defs>
</svg>
