<svg width="100" height="88" viewBox="0 0 100 88" fill="none" xmlns="http://www.w3.org/2000/svg">
<path fill-rule="evenodd" clip-rule="evenodd" d="M43.7499 78.3751C43.7499 83.5508 39.5507 87.75 34.3749 87.75H9.37498C4.19921 87.75 0 83.5508 0 78.3751V31.5002C0 14.2345 13.9843 0.250244 31.2499 0.250244H32.8124C35.41 0.250244 37.4999 2.34012 37.4999 4.93773V14.3127C37.4999 16.9103 35.41 19.0002 32.8124 19.0002H31.2499C24.3554 19.0002 18.75 24.6057 18.75 31.5002V44.0001H34.3749C39.5507 44.0001 43.7499 48.1993 43.7499 53.3751V78.3751ZM99.9998 78.3751C99.9998 83.5508 95.8006 87.75 90.6248 87.75H65.6248C60.4491 87.75 56.2499 83.5508 56.2499 78.3751V31.5002C56.2499 14.2345 70.2341 0.250244 87.4998 0.250244H89.0623C91.6599 0.250244 93.7498 2.34012 93.7498 4.93773V14.3127C93.7498 16.9103 91.6599 19.0002 89.0623 19.0002H87.4998C80.6053 19.0002 74.9998 24.6057 74.9998 31.5002V44.0001H90.6248C95.8006 44.0001 99.9998 48.1993 99.9998 53.3751V78.3751Z" fill="black"/>
</svg>
