<svg width="116" height="90" viewBox="0 0 116 90" fill="none" xmlns="http://www.w3.org/2000/svg">
<path opacity="0.15" d="M32.076 89.24C60.968 89.24 63.448 61.712 63.448 44.228C63.448 27.984 61.34 0.0839937 32.076 0.0839937C2.936 0.0839937 0.704 27.736 0.704 44.228C0.704 61.712 3.184 89.24 32.076 89.24ZM32.076 71.384C21.164 71.384 19.8 58.86 19.8 44.848C19.8 30.216 21.164 18.064 32.076 18.064C42.988 18.064 44.352 30.216 44.352 44.848C44.352 58.86 42.988 71.384 32.076 71.384ZM96.7614 1.572V5.54C96.7614 12.484 93.4134 14.84 87.2134 14.84H77.4174V29.596H96.7614V88H115.485V1.572H96.7614Z" fill="#F9BC6E"/>
</svg>
