<svg width="132" height="90" viewBox="0 0 132 90" fill="none" xmlns="http://www.w3.org/2000/svg">
<path opacity="0.15" d="M32.076 89.24C60.968 89.24 63.448 61.712 63.448 44.228C63.448 27.984 61.34 0.0839937 32.076 0.0839937C2.936 0.0839937 0.704 27.736 0.704 44.228C0.704 61.712 3.184 89.24 32.076 89.24ZM32.076 71.384C21.164 71.384 19.8 58.86 19.8 44.848C19.8 30.216 21.164 18.064 32.076 18.064C42.988 18.064 44.352 30.216 44.352 44.848C44.352 58.86 42.988 71.384 32.076 71.384ZM100.233 70.392C116.601 60.968 128.009 43.732 128.009 28.976C128.009 11.864 116.229 0.579995 100.109 0.579995C80.0214 0.579995 69.2334 17.816 69.2334 32.944L87.5854 34.432C88.0814 27.736 90.1894 18.684 99.6134 18.684C106.681 18.684 109.409 23.644 109.409 29.596C109.409 48.072 82.6254 65.804 70.3494 73.12V88H131.357V70.392H100.233Z" fill="#F9BC6E"/>
</svg>
