<svg width="134" height="90" viewBox="0 0 134 90" fill="none" xmlns="http://www.w3.org/2000/svg">
<path opacity="0.15" d="M32.076 89.24C60.968 89.24 63.448 61.712 63.448 44.228C63.448 27.984 61.34 0.0839937 32.076 0.0839937C2.936 0.0839937 0.704 27.736 0.704 44.228C0.704 61.712 3.184 89.24 32.076 89.24ZM32.076 71.384C21.164 71.384 19.8 58.86 19.8 44.848C19.8 30.216 21.164 18.064 32.076 18.064C42.988 18.064 44.352 30.216 44.352 44.848C44.352 58.86 42.988 71.384 32.076 71.384ZM99.9854 89.24C116.849 89.24 133.093 80.188 133.093 60.844C133.093 52.288 129.497 44.724 120.197 40.632C125.653 37.532 128.505 31.704 128.505 24.512C128.505 9.136 115.485 0.331998 100.481 0.331998C84.8574 0.331998 71.0934 10.004 71.0934 26.868L89.5694 28.108C89.6934 22.032 93.5374 18.188 99.7374 18.188C105.317 18.188 109.781 21.164 109.781 27.364C109.781 31.58 108.169 35.672 96.3894 35.672V50.304C104.697 50.304 114.369 49.684 114.369 59.976C114.369 68.656 107.301 71.384 100.605 71.384C92.1734 71.384 85.4774 67.044 85.4774 58.736L66.8774 59.852C66.8774 79.94 82.8734 89.24 99.9854 89.24Z" fill="#F9BC6E"/>
</svg>
