<svg width="136" height="90" viewBox="0 0 136 90" fill="none" xmlns="http://www.w3.org/2000/svg">
<path opacity="0.15" d="M32.076 89.2401C60.968 89.2401 63.448 61.7121 63.448 44.2281C63.448 27.9841 61.34 0.0841157 32.076 0.0841157C2.936 0.0841157 0.704 27.7361 0.704 44.2281C0.704 61.7121 3.184 89.2401 32.076 89.2401ZM32.076 71.3841C21.164 71.3841 19.8 58.8601 19.8 44.8481C19.8 30.2161 21.164 18.0641 32.076 18.0641C42.988 18.0641 44.352 30.2161 44.352 44.8481C44.352 58.8601 42.988 71.3841 32.076 71.3841ZM122.181 49.9321V1.57212H106.061L64.7694 56.8761V67.7881H103.457V88.0001H122.181V67.7881H135.821V49.9321H122.181ZM88.0814 49.9321L103.457 28.3561V49.9321H88.0814Z" fill="#F9BC6E"/>
</svg>
